<?xml version="1.0" standalone="no"?>
<!DOCTYPE svg PUBLIC "-//W3C//DTD SVG 20010904//EN"
 "http://www.w3.org/TR/2001/REC-SVG-20010904/DTD/svg10.dtd">
<svg version="1.0" xmlns="http://www.w3.org/2000/svg"
 width="260.000000pt" height="260.000000pt" viewBox="0 0 260.000000 260.000000"
 preserveAspectRatio="xMidYMid meet">
<metadata>
Created by potrace 1.14, written by Peter Selinger 2001-2017
</metadata>
<g transform="translate(0.000000,260.000000) scale(0.100000,-0.100000)"
fill="#000000" stroke="none">
<path d="M0 1300 l0 -1300 1300 0 1300 0 0 1300 0 1300 -1300 0 -1300 0 0
-1300z m1020 369 c92 -27 93 -28 75 -72 -8 -20 -21 -52 -29 -71 l-14 -34 -61
24 c-77 31 -165 34 -219 7 -106 -55 -150 -245 -96 -414 16 -50 63 -102 107
-118 55 -21 161 -11 280 25 16 5 18 -1 15 -73 l-3 -78 -65 -17 c-156 -40 -326
-14 -415 64 -90 79 -130 204 -123 378 9 181 74 297 203 361 103 50 216 56 345
18z m1017 -389 c79 -223 146 -413 149 -423 5 -16 -2 -18 -92 -15 l-98 3 -30
98 -29 97 -153 0 -153 0 -31 -100 -31 -100 -95 0 c-73 0 -95 3 -92 13 2 6 69
198 149 425 l144 413 110 -3 109 -3 143 -405z"/>
<path d="M1766 1488 c-8 -29 -31 -105 -51 -168 -19 -63 -35 -118 -35 -122 0
-5 47 -8 105 -8 58 0 105 3 105 6 0 7 -102 338 -105 342 -2 2 -10 -20 -19 -50z"/>
</g>
</svg>
